<svg id="Capa_1" enable-background="new 0 0 512 512" height="512" viewBox="0 0 512 512" width="512" xmlns="http://www.w3.org/2000/svg"><g><g fill="#020288"><path d="m372.154 254.532c-5.522 0-10 4.477-10 10v185.032c0 6.6-5.376 11.97-11.984 11.97h-151.106c-2.042 0-4.035.625-5.711 1.792l-28.077 19.535v-11.326c0-5.523-4.478-10-10-10h-115.271c-6.608 0-11.985-5.37-11.985-11.97v-235.937c0-6.6 5.377-11.969 11.985-11.969h235.634c5.522 0 10-4.477 10-10s-4.478-10-10-10h-235.634c-17.637 0-31.985 14.341-31.985 31.969v235.936c0 17.628 14.349 31.97 31.985 31.97h105.271v20.466c0 3.724 2.069 7.139 5.369 8.863 1.456.761 3.046 1.137 4.63 1.137 2.007 0 4.004-.603 5.712-1.792l41.214-28.675h147.969c17.637 0 31.984-14.341 31.984-31.97v-185.031c0-5.523-4.477-10-10-10z"/><path d="m269.086 275.42h-147.998c-5.522 0-10 4.477-10 10s4.478 10 10 10h147.998c5.522 0 10-4.477 10-10s-4.478-10-10-10z"/><path d="m269.086 320.316h-147.998c-5.522 0-10 4.477-10 10s4.478 10 10 10h147.998c5.522 0 10-4.477 10-10s-4.478-10-10-10z"/><path d="m269.086 365.212h-147.998c-5.522 0-10 4.477-10 10s4.478 10 10 10h147.998c5.522 0 10-4.477 10-10s-4.478-10-10-10z"/></g><g><g><g><g><g><g><path d="m503.98 140.33c0-77.502-62.872-140.33-140.429-140.33s-140.429 62.828-140.429 140.33 62.872 140.33 140.429 140.33c17.581 0 34.407-3.228 49.917-9.124l27.22 18.939v-32.862c38.128-25.093 63.292-68.251 63.292-117.283z" fill="#ffbdbc"/></g></g></g></g></g><g fill="#020288"><path d="m364.731 194.114h-2.36c-15.441 0-28.004 12.563-28.004 28.005s12.563 28.004 28.004 28.004h2.36c15.441 0 28.004-12.563 28.004-28.004s-12.562-28.005-28.004-28.005zm0 36.009h-2.36c-4.413 0-8.004-3.591-8.004-8.004 0-4.414 3.591-8.005 8.004-8.005h2.36c4.413 0 8.004 3.591 8.004 8.005 0 4.413-3.59 8.004-8.004 8.004z"/><path d="m364.725 30.227h-2.347c-15.445 0-28.011 12.566-28.011 28.011v89.08c0 15.445 12.565 28.011 28.011 28.011h2.347c15.445 0 28.011-12.566 28.011-28.011v-89.08c-.001-15.445-12.566-28.011-28.011-28.011zm8.01 117.091c0 4.417-3.594 8.011-8.011 8.011h-2.347c-4.417 0-8.011-3.594-8.011-8.011v-89.08c0-4.417 3.594-8.011 8.011-8.011h2.347c4.417 0 8.011 3.594 8.011 8.011z"/></g></g></g></svg>